<svg width="510" height="338" viewBox="0 0 510 338" fill="none" xmlns="http://www.w3.org/2000/svg">
<g clip-path="url(#clip0_63_237)">
<path d="M214.74 253.8H348.32" stroke="white" stroke-width="10" stroke-miterlimit="10"/>
<path d="M115.7 129.51V224.06L194.68 177.17L115.7 129.51Z" fill="#4B7CC4" stroke="white" stroke-width="10" stroke-miterlimit="10"/>
<path d="M505 319.98H5V61.6001H395.95" stroke="white" stroke-width="10" stroke-miterlimit="10"/>
<path d="M492.57 332.41C495.863 332.41 499.022 331.103 501.352 328.776C503.683 326.45 504.995 323.293 505 320H480.14C480.148 323.292 481.461 326.447 483.791 328.773C486.121 331.1 489.278 332.407 492.57 332.41V332.41Z" fill="white" stroke="white" stroke-width="10" stroke-miterlimit="10"/>
<path d="M30.79 40.3501C35.0813 40.3501 38.56 36.8713 38.56 32.5801C38.56 28.2888 35.0813 24.8101 30.79 24.8101C26.4988 24.8101 23.02 28.2888 23.02 32.5801C23.02 36.8713 26.4988 40.3501 30.79 40.3501Z" fill="white" stroke="white" stroke-width="10" stroke-miterlimit="10"/>
<path d="M66.2402 40.3501C70.5315 40.3501 74.0102 36.8713 74.0102 32.5801C74.0102 28.2888 70.5315 24.8101 66.2402 24.8101C61.949 24.8101 58.4702 28.2888 58.4702 32.5801C58.4702 36.8713 61.949 40.3501 66.2402 40.3501Z" fill="white" stroke="white" stroke-width="10" stroke-miterlimit="10"/>
<path d="M101.69 40.3501C105.981 40.3501 109.46 36.8713 109.46 32.5801C109.46 28.2888 105.981 24.8101 101.69 24.8101C97.3987 24.8101 93.9199 28.2888 93.9199 32.5801C93.9199 36.8713 97.3987 40.3501 101.69 40.3501Z" fill="white" stroke="white" stroke-width="10" stroke-miterlimit="10"/>
<path d="M395.95 143.15V5H101.69" stroke="white" stroke-width="10" stroke-miterlimit="10"/>
</g>
<defs>
<clipPath id="clip0_63_237">
<rect width="510" height="337.41" fill="white"/>
</clipPath>
</defs>
</svg>
